<svg xmlns="http://www.w3.org/2000/svg" version="1.1" height="415.5px" width="360px" viewBox="-10 -10 380 435.5" content="&lt;mxGraphModel dx=&quot;434&quot; dy=&quot;619&quot; grid=&quot;1&quot; gridSize=&quot;10&quot; guides=&quot;1&quot; tooltips=&quot;1&quot; connect=&quot;1&quot; arrows=&quot;1&quot; fold=&quot;1&quot; page=&quot;1&quot; pageScale=&quot;1&quot; pageWidth=&quot;850&quot; pageHeight=&quot;1100&quot; math=&quot;0&quot; shadow=&quot;0&quot;&gt;&lt;root&gt;&lt;mxCell id=&quot;0&quot;/&gt;&lt;mxCell id=&quot;1&quot; parent=&quot;0&quot;/&gt;&lt;mxCell id=&quot;pn1o6ESp2LksZdzmiV5v-20&quot; style=&quot;edgeStyle=orthogonalEdgeStyle;rounded=0;orthogonalLoop=1;jettySize=auto;html=1;exitX=1;exitY=0.5;exitDx=0;exitDy=0;exitPerimeter=0;&quot; parent=&quot;1&quot; source=&quot;pn1o6ESp2LksZdzmiV5v-1&quot; target=&quot;pn1o6ESp2LksZdzmiV5v-5&quot; edge=&quot;1&quot;&gt;&lt;mxGeometry relative=&quot;1&quot; as=&quot;geometry&quot;/&gt;&lt;/mxCell&gt;&lt;mxCell id=&quot;pn1o6ESp2LksZdzmiV5v-1&quot; value=&quot;&quot; style=&quot;sketch=0;points=[[0.015,0.015,0],[0.985,0.015,0],[0.985,0.985,0],[0.015,0.985,0],[0.25,0,0],[0.5,0,0],[0.75,0,0],[1,0.25,0],[1,0.5,0],[1,0.75,0],[0.75,1,0],[0.5,1,0],[0.25,1,0],[0,0.75,0],[0,0.5,0],[0,0.25,0]];verticalLabelPosition=bottom;html=1;verticalAlign=top;aspect=fixed;align=center;pointerEvents=1;shape=mxgraph.cisco19.rect;prIcon=l2_switch;fillColor=#FAFAFA;strokeColor=#005073;&quot; parent=&quot;1&quot; vertex=&quot;1&quot;&gt;&lt;mxGeometry x=&quot;420&quot; y=&quot;240&quot; width=&quot;50&quot; height=&quot;50&quot; as=&quot;geometry&quot;/&gt;&lt;/mxCell&gt;&lt;mxCell id=&quot;pn1o6ESp2LksZdzmiV5v-4&quot; value=&quot;&quot; style=&quot;verticalLabelPosition=bottom;html=1;verticalAlign=top;align=center;strokeColor=none;fillColor=#00BEF2;shape=mxgraph.azure.server_rack;&quot; parent=&quot;1&quot; vertex=&quot;1&quot;&gt;&lt;mxGeometry x=&quot;270&quot; y=&quot;240&quot; width=&quot;50&quot; height=&quot;50&quot; as=&quot;geometry&quot;/&gt;&lt;/mxCell&gt;&lt;mxCell id=&quot;pn1o6ESp2LksZdzmiV5v-5&quot; value=&quot;&quot; style=&quot;html=1;strokeWidth=1;shadow=0;dashed=0;shape=mxgraph.ios7.misc.wifi;fillColor=#007AFF;strokeColor=none;buttonText=;strokeColor2=#222222;fontColor=#222222;fontSize=8;verticalLabelPosition=bottom;verticalAlign=top;align=center;sketch=0;&quot; parent=&quot;1&quot; vertex=&quot;1&quot;&gt;&lt;mxGeometry x=&quot;580&quot; y=&quot;240&quot; width=&quot;50&quot; height=&quot;50&quot; as=&quot;geometry&quot;/&gt;&lt;/mxCell&gt;&lt;mxCell id=&quot;pn1o6ESp2LksZdzmiV5v-6&quot; value=&quot;&quot; style=&quot;verticalLabelPosition=bottom;html=1;verticalAlign=top;align=center;strokeColor=none;fillColor=#00BEF2;shape=mxgraph.azure.computer;pointerEvents=1;&quot; parent=&quot;1&quot; vertex=&quot;1&quot;&gt;&lt;mxGeometry x=&quot;420&quot; y=&quot;370&quot; width=&quot;50&quot; height=&quot;45&quot; as=&quot;geometry&quot;/&gt;&lt;/mxCell&gt;&lt;mxCell id=&quot;pn1o6ESp2LksZdzmiV5v-27&quot; style=&quot;edgeStyle=orthogonalEdgeStyle;rounded=0;orthogonalLoop=1;jettySize=auto;html=1;&quot; parent=&quot;1&quot; source=&quot;pn1o6ESp2LksZdzmiV5v-14&quot; target=&quot;pn1o6ESp2LksZdzmiV5v-26&quot; edge=&quot;1&quot;&gt;&lt;mxGeometry relative=&quot;1&quot; as=&quot;geometry&quot;/&gt;&lt;/mxCell&gt;&lt;mxCell id=&quot;pn1o6ESp2LksZdzmiV5v-14&quot; value=&quot;&quot; style=&quot;sketch=0;outlineConnect=0;fontColor=#232F3E;gradientColor=none;fillColor=#8C4FFF;strokeColor=none;dashed=0;verticalLabelPosition=bottom;verticalAlign=top;align=center;html=1;fontSize=12;fontStyle=0;aspect=fixed;pointerEvents=1;shape=mxgraph.aws4.router;&quot; parent=&quot;1&quot; vertex=&quot;1&quot;&gt;&lt;mxGeometry x=&quot;416&quot; y=&quot;110&quot; width=&quot;58&quot; height=&quot;58&quot; as=&quot;geometry&quot;/&gt;&lt;/mxCell&gt;&lt;mxCell id=&quot;pn1o6ESp2LksZdzmiV5v-17&quot; style=&quot;edgeStyle=orthogonalEdgeStyle;rounded=0;orthogonalLoop=1;jettySize=auto;html=1;entryX=0.5;entryY=0;entryDx=0;entryDy=0;entryPerimeter=0;&quot; parent=&quot;1&quot; source=&quot;pn1o6ESp2LksZdzmiV5v-14&quot; target=&quot;pn1o6ESp2LksZdzmiV5v-1&quot; edge=&quot;1&quot;&gt;&lt;mxGeometry relative=&quot;1&quot; as=&quot;geometry&quot;/&gt;&lt;/mxCell&gt;&lt;mxCell id=&quot;pn1o6ESp2LksZdzmiV5v-18&quot; value=&quot;Port 1 (trunk)&quot; style=&quot;text;html=1;whiteSpace=wrap;strokeColor=none;fillColor=none;align=center;verticalAlign=middle;rounded=0;&quot; parent=&quot;1&quot; vertex=&quot;1&quot;&gt;&lt;mxGeometry x=&quot;450&quot; y=&quot;190&quot; width=&quot;80&quot; height=&quot;30&quot; as=&quot;geometry&quot;/&gt;&lt;/mxCell&gt;&lt;mxCell id=&quot;pn1o6ESp2LksZdzmiV5v-21&quot; style=&quot;edgeStyle=orthogonalEdgeStyle;rounded=0;orthogonalLoop=1;jettySize=auto;html=1;exitX=0.5;exitY=1;exitDx=0;exitDy=0;exitPerimeter=0;entryX=0.5;entryY=0;entryDx=0;entryDy=0;entryPerimeter=0;&quot; parent=&quot;1&quot; source=&quot;pn1o6ESp2LksZdzmiV5v-1&quot; target=&quot;pn1o6ESp2LksZdzmiV5v-6&quot; edge=&quot;1&quot;&gt;&lt;mxGeometry relative=&quot;1&quot; as=&quot;geometry&quot;/&gt;&lt;/mxCell&gt;&lt;mxCell id=&quot;pn1o6ESp2LksZdzmiV5v-22&quot; style=&quot;edgeStyle=orthogonalEdgeStyle;rounded=0;orthogonalLoop=1;jettySize=auto;html=1;exitX=0;exitY=0.5;exitDx=0;exitDy=0;exitPerimeter=0;entryX=1;entryY=0.5;entryDx=0;entryDy=0;entryPerimeter=0;&quot; parent=&quot;1&quot; source=&quot;pn1o6ESp2LksZdzmiV5v-1&quot; target=&quot;pn1o6ESp2LksZdzmiV5v-4&quot; edge=&quot;1&quot;&gt;&lt;mxGeometry relative=&quot;1&quot; as=&quot;geometry&quot;/&gt;&lt;/mxCell&gt;&lt;mxCell id=&quot;pn1o6ESp2LksZdzmiV5v-23&quot; value=&quot;Port 8 (VLAN 30)&quot; style=&quot;text;html=1;whiteSpace=wrap;strokeColor=none;fillColor=none;align=center;verticalAlign=middle;rounded=0;&quot; parent=&quot;1&quot; vertex=&quot;1&quot;&gt;&lt;mxGeometry x=&quot;500&quot; y=&quot;270&quot; width=&quot;60&quot; height=&quot;30&quot; as=&quot;geometry&quot;/&gt;&lt;/mxCell&gt;&lt;mxCell id=&quot;pn1o6ESp2LksZdzmiV5v-24&quot; value=&quot;&amp;lt;span style=&amp;quot;color: rgb(0, 0, 0); font-family: Helvetica; font-size: 12px; font-style: normal; font-variant-ligatures: normal; font-variant-caps: normal; font-weight: 400; letter-spacing: normal; orphans: 2; text-align: center; text-indent: 0px; text-transform: none; widows: 2; word-spacing: 0px; -webkit-text-stroke-width: 0px; white-space: normal; background-color: rgb(236, 236, 236); text-decoration-thickness: initial; text-decoration-style: initial; text-decoration-color: initial; float: none; display: inline !important;&amp;quot;&amp;gt;Port 4-7 (VLAN 20)&amp;lt;/span&amp;gt;&quot; style=&quot;text;whiteSpace=wrap;html=1;&quot; parent=&quot;1&quot; vertex=&quot;1&quot;&gt;&lt;mxGeometry x=&quot;450&quot; y=&quot;320&quot; width=&quot;60&quot; height=&quot;40&quot; as=&quot;geometry&quot;/&gt;&lt;/mxCell&gt;&lt;mxCell id=&quot;pn1o6ESp2LksZdzmiV5v-25&quot; value=&quot;&amp;lt;span style=&amp;quot;color: rgb(0, 0, 0); font-family: Helvetica; font-size: 12px; font-style: normal; font-variant-ligatures: normal; font-variant-caps: normal; font-weight: 400; letter-spacing: normal; orphans: 2; text-align: center; text-indent: 0px; text-transform: none; widows: 2; word-spacing: 0px; -webkit-text-stroke-width: 0px; white-space: normal; background-color: rgb(236, 236, 236); text-decoration-thickness: initial; text-decoration-style: initial; text-decoration-color: initial; float: none; display: inline !important;&amp;quot;&amp;gt;Port 2-3 (VLAN 10)&amp;lt;/span&amp;gt;&quot; style=&quot;text;whiteSpace=wrap;html=1;&quot; parent=&quot;1&quot; vertex=&quot;1&quot;&gt;&lt;mxGeometry x=&quot;340&quot; y=&quot;265&quot; width=&quot;60&quot; height=&quot;40&quot; as=&quot;geometry&quot;/&gt;&lt;/mxCell&gt;&lt;mxCell id=&quot;pn1o6ESp2LksZdzmiV5v-26&quot; value=&quot;&quot; style=&quot;ellipse;shape=cloud;whiteSpace=wrap;html=1;&quot; parent=&quot;1&quot; vertex=&quot;1&quot;&gt;&lt;mxGeometry x=&quot;385&quot; width=&quot;120&quot; height=&quot;80&quot; as=&quot;geometry&quot;/&gt;&lt;/mxCell&gt;&lt;mxCell id=&quot;pn1o6ESp2LksZdzmiV5v-28&quot; value=&quot;WAN to ISP&quot; style=&quot;text;html=1;whiteSpace=wrap;strokeColor=none;fillColor=none;align=center;verticalAlign=middle;rounded=0;&quot; parent=&quot;1&quot; vertex=&quot;1&quot;&gt;&lt;mxGeometry x=&quot;420&quot; y=&quot;25&quot; width=&quot;60&quot; height=&quot;30&quot; as=&quot;geometry&quot;/&gt;&lt;/mxCell&gt;&lt;/root&gt;&lt;/mxGraphModel&gt;"><style type="text/css"></style><path d="M 200 265.5 L 303.63 265.5" fill="none" stroke="rgb(0, 0, 0)" stroke-miterlimit="10" pointer-events="none"/><path d="M 308.88 265.5 L 301.88 269 L 303.63 265.5 L 301.88 262 Z" fill="rgb(0, 0, 0)" stroke="rgb(0, 0, 0)" stroke-miterlimit="10" pointer-events="none"/><rect x="150" y="240.5" width="50" height="50" fill="#fafafa" stroke="#005073" pointer-events="none"/><path d="M 0.06 259.57 C 0.11 258.47 1 257.62 2.07 257.62 L 47.94 257.62 C 49.01 257.62 49.9 258.47 49.95 259.57 L 50 271.38 C 50 271.93 49.78 272.46 49.39 272.85 C 49 273.23 48.48 273.44 47.94 273.43 L 2.07 273.43 C 0.96 273.43 0.06 272.51 0.06 271.38 Z M 6.1 269.68 C 6.1 268.69 5.31 267.88 4.33 267.88 C 3.36 267.88 2.57 268.69 2.57 269.68 C 2.57 270.67 3.36 271.48 4.33 271.48 C 5.31 271.48 6.1 270.67 6.1 269.68 Z M 36.31 269.53 C 36 269.53 35.75 269.78 35.75 270.09 C 35.75 270.4 36 270.66 36.31 270.66 L 46.37 270.66 C 46.68 270.66 46.93 270.4 46.93 270.09 C 46.93 269.78 46.68 269.53 46.37 269.53 Z M 36.31 267.58 C 36 267.58 35.75 267.83 35.75 268.14 C 35.75 268.45 36 268.71 36.31 268.71 L 46.37 268.71 C 46.68 268.71 46.93 268.45 46.93 268.14 C 46.93 267.83 46.68 267.58 46.37 267.58 Z M 36.31 265.57 C 36 265.57 35.75 265.83 35.75 266.14 C 35.75 266.45 36 266.7 36.31 266.7 L 46.37 266.7 C 46.68 266.7 46.93 266.45 46.93 266.14 C 46.93 265.83 46.68 265.57 46.37 265.57 Z M 0 242.45 C 0.05 241.36 0.94 240.5 2.01 240.5 L 47.88 240.5 C 48.95 240.5 49.84 241.36 49.89 242.45 L 49.94 254.26 C 49.94 254.81 49.73 255.34 49.34 255.73 C 48.95 256.12 48.42 256.33 47.88 256.31 L 2.01 256.31 C 0.9 256.31 0 255.39 0 254.26 Z M 6.04 252.56 C 6.04 251.57 5.25 250.77 4.28 250.77 C 3.31 250.77 2.52 251.57 2.52 252.56 C 2.52 253.56 3.31 254.36 4.28 254.36 C 5.25 254.36 6.04 253.56 6.04 252.56 Z M 36.25 252.41 C 35.94 252.41 35.7 252.66 35.7 252.98 C 35.7 253.29 35.94 253.54 36.25 253.54 L 46.32 253.54 C 46.63 253.54 46.87 253.29 46.87 252.98 C 46.87 252.66 46.63 252.41 46.32 252.41 Z M 36.25 250.46 C 35.94 250.46 35.7 250.71 35.7 251.02 C 35.7 251.34 35.94 251.59 36.25 251.59 L 46.32 251.59 C 46.63 251.59 46.87 251.34 46.87 251.02 C 46.87 250.71 46.63 250.46 46.32 250.46 Z M 36.25 248.46 C 35.94 248.46 35.7 248.71 35.7 249.02 C 35.7 249.33 35.94 249.59 36.25 249.59 L 46.32 249.59 C 46.63 249.59 46.87 249.33 46.87 249.02 C 46.87 248.71 46.63 248.46 46.32 248.46 Z M 0.06 276.62 C 0.11 275.53 1 274.67 2.07 274.67 L 47.94 274.67 C 49.01 274.67 49.9 275.53 49.95 276.62 L 50 288.43 C 50 288.98 49.78 289.51 49.39 289.9 C 49 290.29 48.48 290.5 47.94 290.48 L 2.07 290.48 C 1.54 290.48 1.02 290.27 0.65 289.88 C 0.27 289.5 0.06 288.98 0.06 288.43 Z M 6.1 286.74 C 6.1 285.74 5.31 284.94 4.33 284.94 C 3.36 284.94 2.57 285.74 2.57 286.74 C 2.57 287.73 3.36 288.53 4.33 288.53 C 5.31 288.53 6.1 287.73 6.1 286.74 Z M 36.31 286.58 C 36 286.58 35.75 286.84 35.75 287.15 C 35.75 287.46 36 287.71 36.31 287.71 L 46.37 287.71 C 46.68 287.71 46.93 287.46 46.93 287.15 C 46.93 286.84 46.68 286.58 46.37 286.58 Z M 36.31 284.63 C 36 284.63 35.75 284.88 35.75 285.2 C 35.75 285.51 36 285.76 36.31 285.76 L 46.37 285.76 C 46.68 285.76 46.93 285.51 46.93 285.2 C 46.93 284.88 46.68 284.63 46.37 284.63 Z M 36.31 282.63 C 36 282.63 35.75 282.88 35.75 283.19 C 35.75 283.51 36 283.76 36.31 283.76 L 46.37 283.76 C 46.68 283.76 46.93 283.51 46.93 283.19 C 46.93 282.88 46.68 282.63 46.37 282.63 Z" fill="#00bef2" stroke="none" pointer-events="none"/><path d="M 310 250.5 C 310 244.98 314.48 240.5 320 240.5 L 350 240.5 C 355.52 240.5 360 244.98 360 250.5 L 360 280.5 C 360 286.02 355.52 290.5 350 290.5 L 320 290.5 C 314.48 290.5 310 286.02 310 280.5 Z" fill="#007aff" stroke="none" pointer-events="none"/><path d="M 319.5 261.75 C 323.48 257.4 329.1 254.92 335 254.92 C 340.9 254.92 346.52 257.4 350.5 261.75 L 347.75 264 C 344.44 260.48 339.83 258.49 335 258.49 C 330.17 258.49 325.56 260.48 322.25 264 Z" fill="#ffffff" stroke="none" pointer-events="none"/><path d="M 325.25 266.5 C 330.86 261.7 339.14 261.7 344.75 266.5 L 342 269 C 337.94 265.65 332.06 265.65 328 269 Z" fill="#ffffff" stroke="none" pointer-events="none"/><path d="M 331 272.25 C 333.28 270.21 336.72 270.21 339 272.25 L 335 276.25 Z" fill="#ffffff" stroke="none" pointer-events="none"/><path d="M 152.33 406.05 C 151.66 405.99 151.05 405.67 150.62 405.16 C 150.2 404.66 150 404.01 150.07 403.36 L 150.07 373.01 C 150.17 371.75 151.15 370.74 152.43 370.56 L 197.14 370.56 C 198.61 370.5 199.87 371.58 200 373.01 L 199.95 403.85 C 199.66 405.15 198.5 406.09 197.14 406.15 L 181.46 406.15 L 180.76 408.94 C 180.6 409.58 180.71 410.26 181.07 410.83 C 181.43 411.39 182.01 411.79 182.67 411.93 C 184.19 412.43 185.79 412.65 187.39 412.56 L 190.31 412.56 L 190.31 415.5 L 157.71 415.5 L 157.71 412.56 L 161.17 412.56 C 162.99 412.57 164.79 412.28 166.5 411.68 C 167.84 411.37 168.67 410.05 168.35 408.74 L 167.9 406.15 Z M 153.79 402.53 L 196.13 402.53 L 196.13 374.33 L 153.79 374.33 Z" fill="#00bef2" stroke="none" pointer-events="none"/><path d="M 175 110.5 L 175 90.5 L 175 100.5 L 175 86.87" fill="none" stroke="rgb(0, 0, 0)" stroke-miterlimit="10" pointer-events="none"/><path d="M 175 81.62 L 178.5 88.62 L 175 86.87 L 171.5 88.62 Z" fill="rgb(0, 0, 0)" stroke="rgb(0, 0, 0)" stroke-miterlimit="10" pointer-events="none"/><path d="M 199.82 138.18 L 199.82 140.82 L 182 140.82 L 185.48 144.3 L 183.61 146.16 L 177.89 140.43 C 177.37 139.92 177.37 139.08 177.89 138.57 L 183.61 132.84 L 185.48 134.7 L 182 138.18 Z M 172.11 140.43 L 166.39 146.16 L 164.52 144.3 L 168 140.82 L 150.18 140.82 L 150.18 138.18 L 168 138.18 L 164.52 134.7 L 166.39 132.84 L 172.11 138.57 C 172.63 139.08 172.63 139.92 172.11 140.43 Z M 179.8 155.75 L 181.66 157.61 L 175.93 163.34 C 175.67 163.6 175.34 163.73 175 163.73 C 174.66 163.73 174.33 163.6 174.07 163.34 L 168.34 157.61 L 170.2 155.75 L 173.68 159.23 L 173.68 120.16 L 170.27 124.13 L 168.27 122.42 L 174 115.73 C 174.5 115.15 175.5 115.15 176 115.73 L 181.73 122.42 L 179.73 124.13 L 176.32 120.16 L 176.32 159.23 Z M 175 165.86 C 160.46 165.86 148.64 154.04 148.64 139.5 C 148.64 124.96 160.46 113.14 175 113.14 C 189.54 113.14 201.36 124.96 201.36 139.5 C 201.36 154.04 189.54 165.86 175 165.86 Z M 175 110.5 C 159.01 110.5 146 123.51 146 139.5 C 146 155.49 159.01 168.5 175 168.5 C 190.99 168.5 204 155.49 204 139.5 C 204 123.51 190.99 110.5 175 110.5 Z" fill="#8c4fff" stroke="none" pointer-events="none"/><path d="M 175 168.5 L 175 234.13" fill="none" stroke="rgb(0, 0, 0)" stroke-miterlimit="10" pointer-events="none"/><path d="M 175 239.38 L 171.5 232.38 L 175 234.13 L 178.5 232.38 Z" fill="rgb(0, 0, 0)" stroke="rgb(0, 0, 0)" stroke-miterlimit="10" pointer-events="none"/><g><foreignObject pointer-events="none" width="100%" height="100%" style="overflow: visible; text-align: left;"><div xmlns="http://www.w3.org/1999/xhtml" style="display: flex; align-items: unsafe center; justify-content: unsafe center; width: 78px; height: 1px; padding-top: 206px; margin-left: 181px;"><div data-drawio-colors="color: rgb(0, 0, 0); " style="box-sizing: border-box; font-size: 0px; text-align: center;"><div style="display: inline-block; font-size: 12px; font-family: Helvetica; color: rgb(0, 0, 0); line-height: 1.2; pointer-events: none; white-space: normal; overflow-wrap: normal;">Port 1 (trunk)</div></div></div></foreignObject></g><path d="M 175 290.5 L 175 364.13" fill="none" stroke="rgb(0, 0, 0)" stroke-miterlimit="10" pointer-events="none"/><path d="M 175 369.38 L 171.5 362.38 L 175 364.13 L 178.5 362.38 Z" fill="rgb(0, 0, 0)" stroke="rgb(0, 0, 0)" stroke-miterlimit="10" pointer-events="none"/><path d="M 150 265.5 L 56.37 265.5" fill="none" stroke="rgb(0, 0, 0)" stroke-miterlimit="10" pointer-events="none"/><path d="M 51.12 265.5 L 58.12 262 L 56.37 265.5 L 58.12 269 Z" fill="rgb(0, 0, 0)" stroke="rgb(0, 0, 0)" stroke-miterlimit="10" pointer-events="none"/><g><foreignObject pointer-events="none" width="100%" height="100%" style="overflow: visible; text-align: left;"><div xmlns="http://www.w3.org/1999/xhtml" style="display: flex; align-items: unsafe center; justify-content: unsafe center; width: 58px; height: 1px; padding-top: 286px; margin-left: 231px;"><div data-drawio-colors="color: rgb(0, 0, 0); " style="box-sizing: border-box; font-size: 0px; text-align: center;"><div style="display: inline-block; font-size: 12px; font-family: Helvetica; color: rgb(0, 0, 0); line-height: 1.2; pointer-events: none; white-space: normal; overflow-wrap: normal;">Port 8 (VLAN 30)</div></div></div></foreignObject></g><g><foreignObject pointer-events="none" width="100%" height="100%" style="overflow: visible; text-align: left;"><div xmlns="http://www.w3.org/1999/xhtml" style="display: flex; align-items: unsafe flex-start; justify-content: unsafe flex-start; width: 58px; height: 1px; padding-top: 328px; margin-left: 182px;"><div data-drawio-colors="color: rgb(0, 0, 0); " style="box-sizing: border-box; font-size: 0px; text-align: left;"><div style="display: inline-block; font-size: 12px; font-family: Helvetica; color: rgb(0, 0, 0); line-height: 1.2; pointer-events: none; white-space: normal; overflow-wrap: normal;"><span style="color: rgb(0, 0, 0); font-family: Helvetica; font-size: 12px; font-style: normal; font-variant-ligatures: normal; font-variant-caps: normal; font-weight: 400; letter-spacing: normal; orphans: 2; text-align: center; text-indent: 0px; text-transform: none; widows: 2; word-spacing: 0px; -webkit-text-stroke-width: 0px; white-space: normal; background-color: rgb(236, 236, 236); text-decoration-thickness: initial; text-decoration-style: initial; text-decoration-color: initial; float: none; display: inline !important;">Port 4-7 (VLAN 20)</span></div></div></div></foreignObject></g><g><foreignObject pointer-events="none" width="100%" height="100%" style="overflow: visible; text-align: left;"><div xmlns="http://www.w3.org/1999/xhtml" style="display: flex; align-items: unsafe flex-start; justify-content: unsafe flex-start; width: 58px; height: 1px; padding-top: 273px; margin-left: 72px;"><div data-drawio-colors="color: rgb(0, 0, 0); " style="box-sizing: border-box; font-size: 0px; text-align: left;"><div style="display: inline-block; font-size: 12px; font-family: Helvetica; color: rgb(0, 0, 0); line-height: 1.2; pointer-events: none; white-space: normal; overflow-wrap: normal;"><span style="color: rgb(0, 0, 0); font-family: Helvetica; font-size: 12px; font-style: normal; font-variant-ligatures: normal; font-variant-caps: normal; font-weight: 400; letter-spacing: normal; orphans: 2; text-align: center; text-indent: 0px; text-transform: none; widows: 2; word-spacing: 0px; -webkit-text-stroke-width: 0px; white-space: normal; background-color: rgb(236, 236, 236); text-decoration-thickness: initial; text-decoration-style: initial; text-decoration-color: initial; float: none; display: inline !important;">Port 2-3 (VLAN 10)</span></div></div></div></foreignObject></g><path d="M 145 20.5 C 121 20.5 115 40.5 134.2 44.5 C 115 53.3 136.6 72.5 152.2 64.5 C 163 80.5 199 80.5 211 64.5 C 235 64.5 235 48.5 220 40.5 C 235 24.5 211 8.5 190 16.5 C 175 4.5 151 4.5 145 20.5 Z" fill="rgb(255, 255, 255)" stroke="rgb(0, 0, 0)" stroke-miterlimit="10" pointer-events="none"/><g><foreignObject pointer-events="none" width="100%" height="100%" style="overflow: visible; text-align: left;"><div xmlns="http://www.w3.org/1999/xhtml" style="display: flex; align-items: unsafe center; justify-content: unsafe center; width: 58px; height: 1px; padding-top: 41px; margin-left: 151px;"><div data-drawio-colors="color: rgb(0, 0, 0); " style="box-sizing: border-box; font-size: 0px; text-align: center;"><div style="display: inline-block; font-size: 12px; font-family: Helvetica; color: rgb(0, 0, 0); line-height: 1.2; pointer-events: none; white-space: normal; overflow-wrap: normal;">WAN to ISP</div></div></div></foreignObject></g></svg>